:SAMPLES-PER-SECOND 24
:FULLY-SPECIFIED
:DEGREES
555
root  4.92363 40.2429 30.2141 3.74683 -53.1369 -1.69153
RightUpLeg  -3.82056 6.57974 -14.7558
RightLeg  21.4476 -5.97815 -2.79668
RightFoot  -0.690871 -0.947235 10.0114
RightToes  -2.08645e-008 3.77894e-005 6.81332e-007
Spine  -6.59193 2.0975 5.85587
Spine1  9.85001 2.52975 -3.08723
HEad  -32.114 32.183 -17.4925
LeftShoulder1  5.94665 -11.2739 -34.2357
LeftArm  -16.1057 32.3604 -41.7069
LeftForeArm  162.914 -68.9359 -153.883
LeftHand  -0.399778 -0.740967 7.68325
RightShoulder  4.01574 6.57129 33.971
RightArm  9.31141 -32.2539 31.6068
RightForeArm  157.472 70.8933 150.348
RightHand  -0.0421514 9.58858 -0.727704
LeftUpLeg  -10.0612 -1.02391 10.2326
LeftLeg  16.2065 -1.46282 -0.0531373
LeftFoot  -0.334382 1.53981 -15.8334
LeftToes  1.24767e-006 1.47042e-008 1.32732e-009
556
root  5.06172 40.8384 30.6846 5.08386 -52.6216 -2.34149
RightUpLeg  -4.51683 3.0485 -14.3134
RightLeg  21.7901 -5.68251 -2.71647
RightFoot  0.813564 -0.892546 8.3921
RightToes  -2.08645e-008 3.77894e-005 6.81332e-007
Spine  -8.41257 1.94354 6.35895
Spine1  10.1622 2.38708 -3.59824
HEad  -30.4561 32.5815 -17.0799
LeftShoulder1  5.68485 -10.9154 -33.4303
LeftArm  -15.3953 30.0028 -40.4365
LeftForeArm  166.23 -66.4544 -157.132
LeftHand  -0.416426 -0.895234 7.81495
RightShoulder  4.08986 6.69491 34.2116
RightArm  9.70209 -33.3889 32.6535
RightForeArm  162.54 68.7407 154.077
RightHand  0.0607235 10.241 0.0340416
LeftUpLeg  -8.9832 2.41646 10.0061
LeftLeg  12.2099 -5.76589 -0.639797
LeftFoot  2.96651 2.14215 -17.1291
LeftToes  1.24767e-006 1.47042e-008 1.32732e-009
557
root  5.37693 40.7841 31.0019 5.1698 -52.3501 -3.00171
RightUpLeg  -5.56954 2.63187 -13.6553
RightLeg  26.3071 -4.1398 -2.43741
RightFoot  0.325854 -0.77565 7.60106
RightToes  -2.08645e-008 3.77894e-005 6.81332e-007
Spine  -7.66608 1.73243 6.96761
Spine1  10.0665 2.27119 -4.17119
HEad  -29.4196 32.4123 -17.215
LeftShoulder1  5.5924 -10.7873 -33.1391
LeftArm  -14.7375 24.2782 -36.0422
LeftForeArm  172.184 -63.7096 -160.302
LeftHand  -0.429934 -0.308628 8.83307
RightShoulder  4.11542 6.77079 34.1656
RightArm  10.2473 -29.1631 31.851
RightForeArm  166.74 67.0158 156.594
RightHand  -0.00710786 10.6614 -0.469412
LeftUpLeg  -9.44491 -0.149787 9.6714
LeftLeg  13.9224 -3.45131 -0.239129
LeftFoot  1.91507 1.87871 -16.2095
LeftToes  1.24767e-006 1.47042e-008 1.32732e-009
558
root  5.7934 40.1645 31.2498 4.21655 -52.7916 -3.31604
RightUpLeg  -6.68036 3.26154 -13.2301
RightLeg  31.818 -3.43251 -2.53706
RightFoot  0.120594 -0.825055 8.2154
RightToes  -2.08645e-008 3.77894e-005 6.81332e-007
Spine  -5.17499 1.73512 6.7538
Spine1  9.08499 2.3209 -3.90165
HEad  -27.4789 32.4334 -16.7599
LeftShoulder1  5.38429 -10.5267 -32.383
LeftArm  -16.1279 15.7566 -31.1479
LeftForeArm  175.448 -60.9524 -162.682
LeftHand  -0.448791 1.21381 12.4413
RightShoulder  3.95566 6.606 33.2425
RightArm  7.78723 -20.0987 30.3214
RightForeArm  168.868 65.5175 158.349
RightHand  -0.382842 10.7747 -3.15711
LeftUpLeg  -10.5946 -2.83583 8.93978
LeftLeg  19.0702 0.147701 0.385307
LeftFoot  -2.92227 1.00093 -13.3149
LeftToes  1.24767e-006 1.47042e-008 1.32732e-009
559
root  6.14099 39.2176 31.4254 2.21558 -53.4826 -2.05817
RightUpLeg  -6.77418 2.90321 -13.608
RightLeg  35.0366 -6.5586 -5.16322
RightFoot  -3.74905 -0.816247 12.1005
RightToes  -2.08645e-008 3.77894e-005 6.81332e-007
Spine  -3.60431 2.0467 4.59461
Spine1  8.60791 2.5355 -2.64066
HEad  -24.9918 32.4834 -15.2039
LeftShoulder1  4.86729 -9.82371 -30.5121
LeftArm  -21.2327 4.48932 -26.246
LeftForeArm  177.327 -58.8622 -164.189
LeftHand  -0.286659 3.58919 18.2218
RightShoulder  3.54963 6.08739 31.1105
RightArm  0.484943 -7.65821 30.2171
RightForeArm  167.928 64.6558 159.044
RightHand  -0.752611 9.7874 -6.14553
LeftUpLeg  -11.8266 -4.28036 7.24621
LeftLeg  24.2775 2.27497 1.46129
LeftFoot  -9.22737 0.271158 -11.9329
LeftToes  1.24767e-006 1.47042e-008 1.32732e-009
560
root  6.36572 38.3326 31.497 -0.26123 -53.4789 0.397949
RightUpLeg  -4.93697 2.56246 -14.909
RightLeg  34.4101 -10.2614 -7.69743
RightFoot  -10.9306 -0.131067 16.4926
RightToes  -2.08645e-008 3.77894e-005 6.81332e-007
Spine  -4.33834 2.30871 1.86305
Spine1  10.0463 2.7139 -1.9886
HEad  -22.0797 31.9697 -13.1915
LeftShoulder1  4.37148 -9.07575 -28.7156
LeftArm  -30.5912 -8.3394 -20.7723
LeftForeArm  179.075 -58.5066 -164.544
LeftHand  0.140043 6.09571 23.5851
RightShoulder  3.05713 5.38275 28.455
RightArm  -9.54913 6.41452 31.6778
RightForeArm  166.245 64.5374 158.969
RightHand  -1.091 8.34337 -9.56521
LeftUpLeg  -13.5733 -7.10534 5.06101
LeftLeg  29.1803 4.73711 3.21923
LeftFoot  -14.2057 -0.216457 -11.9952
LeftToes  1.24767e-006 1.47042e-008 1.32732e-009
561
root  6.49101 38.0237 31.5501 -1.10559 -53.4263 1.10638
RightUpLeg  -2.29689 2.83332 -15.8651
RightLeg  30.7323 -10.062 -6.62158
RightFoot  -14.1528 0.344387 17.9574
RightToes  -2.08645e-008 3.77894e-005 6.81332e-007
Spine  -6.21745 2.69132 2.15362
Spine1  11.9451 3.26555 -2.90675
HEad  -16.9833 31.0415 -10.6436
LeftShoulder1  4.1337 -8.70183 -27.8084
LeftArm  -39.9035 -18.6602 -16.7186
LeftForeArm  -179.174 -58.0996 -164.933
LeftHand  0.4999 7.54924 26.5978
RightShoulder  2.72499 4.88594 26.4731
RightArm  -18.4742 19.2245 33.4118
RightForeArm  165.881 64.5402 158.929
RightHand  -1.53849 7.32155 -14.2987
LeftUpLeg  -14.6378 -8.86972 4.17073
LeftLeg  31.8627 6.33061 4.57862
LeftFoot  -15.4243 -0.332408 -11.8644
LeftToes  1.24767e-006 1.47042e-008 1.32732e-009
